<?xml version="1.0" encoding="UTF-8"?>
<svg id="Layer_1" xmlns="http://www.w3.org/2000/svg" width="200" height="44.8" version="1.1" viewBox="0 0 200 44.8">
  <!-- Generator: Adobe Illustrator 29.6.0, SVG Export Plug-In . SVG Version: 2.1.1 Build 207)  -->
  <defs>
    <style>
      .st0 {
        fill: #111;
      }
    </style>
  </defs>
  <path class="st0" d="M9,42c-2.9-1.8-5.1-4.4-6.7-7.7-1.6-3.3-2.4-7.1-2.4-11.5s.9-8.3,2.8-11.7c1.9-3.5,4.4-6.2,7.7-8.1,3.3-2,7-2.9,11.1-2.9s5.1.3,7.7.9c2.6.6,4.9,1.5,7.1,2.6l-5,13.7h-.3c-.5-4.2-1.8-7.3-3.7-9.4-1.9-2.1-4.5-3.2-7.7-3.2s-5.3,1-7,3.1c-1.7,2.1-2.6,4.9-2.6,8.4s.7,6.8,2,9.6c1.3,2.8,3.2,4.9,5.5,6.5,2.4,1.5,5.1,2.3,8.2,2.3s4.8-.4,6.3-1.3c1.6-.8,2.7-2.2,3.5-4.1l.4.2c-2.3,10.2-8,15.3-17,15.3s-7.1-.9-9.9-2.8Z"/>
  <path class="st0" d="M77.4,40.9c.7,1,1.7,1.8,2.9,2.3v.3h-21.7v-.3c1.9-1,2.8-2.6,2.8-4.9s-.3-2.7-.8-4.2l-1.9-5.8h-13l-2.5,7.6c-.3.9-.5,1.8-.5,2.7,0,2.1,1,3.6,3,4.7v.3h-10.4v-.3c1.2-.6,2.3-1.4,3.1-2.6.8-1.2,1.6-2.9,2.4-5.1L52.7,1.2h10l12.6,35.5c.6,1.8,1.3,3.2,2,4.2ZM58.1,26.4l-5.8-17.4-5.9,17.4h11.7Z"/>
  <path class="st0" d="M87.8,42c-2.9-1.8-5.1-4.4-6.7-7.7-1.6-3.3-2.4-7.1-2.4-11.5s.9-8.3,2.8-11.7c1.9-3.5,4.4-6.2,7.7-8.1,3.3-2,7-2.9,11.1-2.9s5.1.3,7.7.9c2.6.6,4.9,1.5,7.1,2.6l-5,13.7h-.3c-.5-4.2-1.8-7.3-3.7-9.4-1.9-2.1-4.5-3.2-7.7-3.2s-5.3,1-7,3.1c-1.7,2.1-2.6,4.9-2.6,8.4s.7,6.8,2,9.6c1.3,2.8,3.2,4.9,5.5,6.5,2.4,1.5,5.1,2.3,8.2,2.3s4.8-.4,6.3-1.3c1.6-.8,2.7-2.2,3.5-4.1l.4.2c-2.3,10.2-8,15.3-17,15.3s-7.1-.9-9.9-2.8Z"/>
  <path class="st0" d="M159.4,3.8c-.6,1-1,2.4-1,4.1v28.9c0,1.7.3,3.1,1,4.1.6,1,1.6,1.8,2.9,2.3v.3h-20.4v-.3c1.3-.5,2.3-1.3,2.9-2.3.6-1,1-2.4,1-4.1v-14h-11.6v14c0,1.7.3,3.1,1,4.1.6,1,1.6,1.8,2.9,2.3v.3h-20.4v-.3c1.3-.5,2.3-1.3,2.9-2.3.6-1,1-2.4,1-4.1V7.9c0-1.7-.3-3.1-1-4.1-.6-1-1.6-1.8-2.9-2.3v-.3h20.4v.3c-1.3.5-2.3,1.3-2.9,2.3-.6,1-1,2.4-1,4.1v13h11.6V7.9c0-1.7-.3-3.1-1-4.1-.6-1-1.6-1.8-2.9-2.3v-.3h20.4v.3c-1.3.5-2.3,1.3-2.9,2.3Z"/>
  <path class="st0" d="M200,26.6l-1.6,16.9h-32.5v-.3c1.3-.5,2.3-1.2,2.9-2.2.6-.9.9-2.4.9-4.4V7.8c0-1.9-.3-3.3-.9-4.2s-1.6-1.6-3-2.1v-.3h31.9l1,15.1h-.3c-1.1-3.9-3-7.1-5.6-9.6s-5.6-3.7-8.9-3.7h-1.5v17.9h.6c2.5,0,4.6-.7,6.2-2,1.6-1.4,2.7-3,3.4-5h.3v16.6h-.3c-.6-2.2-1.8-4-3.4-5.5-1.6-1.5-3.7-2.2-6.2-2.2h-.6v18.9h1.5c3.8,0,6.9-1.2,9.4-3.7,2.5-2.5,4.6-6.3,6.3-11.4h.3Z"/>
</svg>