<?xml version="1.0" encoding="UTF-8"?>
<svg id="Layer_1" xmlns="http://www.w3.org/2000/svg" width="286.5" height="82.8" version="1.1" viewBox="0 0 286.5 82.8">
  <!-- Generator: Adobe Illustrator 29.6.0, SVG Export Plug-In . SVG Version: 2.1.1 Build 207)  -->
  <defs>
    <style>
      .st0 {
        fill-rule: evenodd;
      }

      .st0, .st1 {
        fill: #181616;
      }
    </style>
  </defs>
  <path class="st0" d="M42.1,0C18.8,0,0,19,0,42.4s12.1,34.6,28.8,40.3c2.1.4,2.9-.9,2.9-2s0-4.4,0-7.9c-11.7,2.5-14.2-5.1-14.2-5.1-1.9-4.9-4.7-6.2-4.7-6.2-3.8-2.6.3-2.6.3-2.6,4.3.3,6.5,4.4,6.5,4.4,3.8,6.5,9.8,4.6,12.3,3.5.3-2.7,1.5-4.6,2.7-5.7-9.3-1-19.2-4.6-19.2-20.9s1.7-8.4,4.3-11.4c-.4-1.1-1.9-5.4.4-11.2,0,0,3.6-1.1,11.6,4.4,3.4-.9,7-1.4,10.5-1.4,3.6,0,7.2.5,10.5,1.4,8-5.5,11.6-4.4,11.6-4.4,2.3,5.8.8,10.2.4,11.2,2.7,3,4.3,6.7,4.3,11.4,0,16.3-9.8,19.9-19.2,20.9,1.5,1.3,2.9,3.9,2.9,7.9,0,5.7,0,10.3,0,11.7s.8,2.5,2.9,2c16.7-5.6,28.8-21.5,28.8-40.3,0-23.5-18.8-42.4-42.1-42.4Z"/>
  <g>
    <path class="st1" d="M134,37.7h-15.9c-.4,0-.7.3-.7.7v7.8c0,.4.3.7.7.7h6.2v9.6s-1.4.5-5.2.5-10.9-1.7-10.9-15.6,6.6-15.8,12.8-15.8,7.7.9,9.1,1.4c.5.1.9-.3.9-.7l1.8-7.5c0-.2,0-.4-.3-.6-.6-.4-4.2-2.5-13.4-2.5s-21.5,4.5-21.5,26.2,12.4,24.9,22.9,24.9,13.9-3.7,13.9-3.7c.2-.1.2-.4.2-.6v-24.2c0-.4-.3-.7-.7-.7Z"/>
    <path class="st1" d="M215.8,18.4c0-.4-.3-.7-.7-.7h-8.9c-.4,0-.7.3-.7.7s0,17.3,0,17.3h-13.9v-17.3c0-.4-.3-.7-.7-.7h-8.9c-.4,0-.7.3-.7.7v46.8c0,.4.3.7.7.7h8.9c.4,0,.7-.3.7-.7v-20h13.9s0,20,0,20c0,.4.3.7.7.7h9c.4,0,.7-.3.7-.7V18.4Z"/>
    <g>
      <path class="st1" d="M150.8,24.6c0-3.2-2.6-5.8-5.8-5.8s-5.8,2.6-5.8,5.8,2.6,5.8,5.8,5.8,5.8-2.6,5.8-5.8Z"/>
      <path class="st1" d="M150.2,55.3v-21.6c0-.4-.3-.7-.7-.7h-8.9c-.4,0-.8.4-.8.8v30.9c0,.9.6,1.2,1.3,1.2h8c.9,0,1.1-.4,1.1-1.2v-9.4Z"/>
    </g>
    <path class="st1" d="M249.7,33.1h-8.9c-.4,0-.7.3-.7.7v22.9s-2.3,1.6-5.5,1.6-4-1.5-4-4.6v-20c0-.4-.3-.7-.7-.7h-9c-.4,0-.7.3-.7.7v21.5c0,9.3,5.2,11.6,12.3,11.6s10.6-3.2,10.6-3.2c0,0,.2,1.7.3,1.9.1.2.4.4.7.4h5.7c.4,0,.7-.4.7-.8v-31.4c0-.4-.3-.7-.7-.7Z"/>
    <path class="st1" d="M274,32c-5,0-8.5,2.2-8.5,2.2v-15.8c0-.4-.3-.7-.7-.7h-9c-.4,0-.7.3-.7.7v46.8c0,.4.3.7.7.7h6.2c.3,0,.5-.1.6-.4.2-.3.4-2.2.4-2.2,0,0,3.7,3.5,10.6,3.5s12.8-4.1,12.8-18.5-7.5-16.3-12.5-16.3ZM270.5,58.4c-3.1,0-5.2-1.5-5.2-1.5v-14.8s2.1-1.3,4.6-1.5c3.2-.3,6.3.7,6.3,8.3s-1.4,9.6-5.7,9.5Z"/>
    <path class="st1" d="M175.9,33h-6.7s0-8.9,0-8.9c0-.3-.2-.5-.6-.5h-9.1c-.4,0-.5.2-.5.5v9.2s-4.6,1.1-4.9,1.2c-.3,0-.5.4-.5.7v5.8c0,.4.3.7.7.7h4.7v13.8c0,10.3,7.2,11.3,12.1,11.3s4.9-.7,5.3-.9c.3,0,.4-.4.4-.7v-6.3c0-.4-.3-.7-.7-.7s-1.4.2-2.4.2c-3.3,0-4.4-1.5-4.4-3.5s0-13.1,0-13.1h6.7c.4,0,.7-.3.7-.7v-7.2c0-.4-.3-.7-.7-.7Z"/>
  </g>
</svg>